<?xml version="1.0" encoding="UTF-8"?>
<svg xmlns="http://www.w3.org/2000/svg" xmlns:xlink="http://www.w3.org/1999/xlink" width="479.53pt" height="499.3pt" viewBox="0 0 479.53 499.3" version="1.1">
<g id="surface1">
<path style=" stroke:none;fill-rule:evenodd;fill:rgb(100%,76.899719%,0%);fill-opacity:1;" d="M 0 499.300781 L 479.527344 499.300781 L 479.527344 -0.00390625 L 0 -0.00390625 Z M 0 499.300781 "/>
<path style=" stroke:none;fill-rule:evenodd;fill:rgb(10.598755%,8.599854%,9.799194%);fill-opacity:1;" d="M 239.652344 134.394531 C 239.945313 131.378906 239.515625 127.386719 244.132813 126.632813 C 248.988281 126.085938 254.546875 126.171875 259.402344 125.621094 C 260.671875 125.417969 259.867188 122.351563 260.226563 121.257813 C 262.339844 121.257813 263.179688 121.066406 265.273438 121.066406 C 266.457031 120.914063 267.195313 124.9375 267.28125 126.222656 C 279.050781 129.015625 283.769531 128.671875 294.804688 128.605469 C 294.804688 127.644531 293.929688 123.929688 294.992188 124.011719 C 297.207031 124.203125 300.828125 124.527344 300.828125 124.527344 C 301.445313 124.597656 301.339844 126.652344 301.960938 126.71875 C 302.988281 126.824219 304.757813 126.910156 305.957031 125.488281 C 308.53125 126.136719 310.898438 126.34375 313.457031 126.996094 C 315.773438 127.542969 314.332031 128.742188 312.171875 130.078125 C 309.132813 131.378906 308.359375 131.839844 303.640625 133.144531 C 298.921875 134.460938 290.238281 135.128906 281.351563 134.941406 C 274.433594 134.789063 266.472656 132.921875 258.957031 132.492188 C 251.902344 132.082031 245.265625 133.058594 239.652344 134.394531 "/>
<path style=" stroke:none;fill-rule:evenodd;fill:rgb(10.598755%,8.599854%,9.799194%);fill-opacity:1;" d="M 316.769531 116.203125 C 318.949219 117.96875 322.035156 117.914063 325.761719 117.847656 C 327.425781 117.8125 328.796875 116.082031 330.136719 114.507813 C 334.597656 109.144531 338.457031 99.398438 339.417969 88.519531 C 340.3125 78.484375 338.21875 65.277344 333.105469 57.3125 C 329.277344 51.300781 323.339844 42.511719 317.179688 38.777344 C 312.582031 35.984375 312.289063 40.113281 320.027344 48.097656 C 324.09375 52.273438 327.339844 57.964844 327.5625 62.484375 C 327.75 66.613281 325.3125 69.800781 321.179688 69.574219 C 312.496094 69.132813 311.945313 65.414063 309.21875 63.476563 C 308.050781 62.640625 305.71875 61.578125 304.996094 62.347656 C 304.414063 62.980469 304.121094 65.175781 307.125 67.246094 C 312.390625 70.84375 328.417969 85.265625 318.878906 88.742188 C 309.339844 92.222656 303.742188 87.546875 301.703125 86.929688 C 299.675781 86.3125 298.082031 85.882813 297.859375 86.6875 C 297.617188 87.476563 297.652344 88.058594 298.164063 88.605469 C 299.058594 89.566406 301.667969 90.59375 305.871094 91.929688 C 309.164063 92.972656 313.972656 97.207031 315.925781 101.554688 C 317.882813 105.90625 317.902344 111.886719 316.769531 116.203125 "/>
<path style=" stroke:none;fill-rule:evenodd;fill:rgb(10.598755%,8.599854%,9.799194%);fill-opacity:1;" d="M 224.914063 135.214844 C 224.5 135.234375 224.226563 134.855469 224.226563 134.53125 C 224.210938 132.886719 223.589844 130.8125 222.113281 130.214844 C 218.269531 128.621094 212.78125 127.164063 209.039063 125.453125 C 202.914063 122.007813 198.589844 118.359375 193.886719 113.085938 C 190.765625 109.589844 189.082031 104.828125 187.710938 100.339844 C 187.351563 99.15625 188.121094 98.78125 188.6875 99.84375 C 190.78125 103.75 193.507813 106.832031 196.308594 110.140625 C 199.894531 114.367188 203.464844 116.769531 207.203125 118.515625 C 211.183594 120.382813 215.4375 122.027344 219.59375 123.035156 C 222.59375 123.757813 225.511719 125.691406 227.554688 128.347656 C 228.652344 129.769531 228.359375 132.355469 228.15625 134.136719 C 228.121094 134.601563 227.640625 135.113281 227.175781 135.128906 "/>
<path style=" stroke:none;fill-rule:evenodd;fill:rgb(10.598755%,8.599854%,9.799194%);fill-opacity:1;" d="M 208.765625 140.046875 C 207.066406 140.886719 206.449219 139.859375 205.382813 138.660156 C 204.027344 137.304688 200.632813 130.28125 201.199219 127.355469 C 201.765625 124.441406 203.375 127.679688 203.71875 129.167969 C 203.992188 130.4375 205.933594 131.414063 209.160156 131.824219 C 214.460938 132.40625 215.113281 133.179688 217.070313 134.992188 C 217.242188 135.148438 217.207031 135.488281 217.449219 135.59375 C 218.90625 136.226563 218.082031 136.722656 216.039063 137.082031 C 214.085938 137.425781 209.742188 139.328125 208.765625 140.046875 "/>
<path style="fill:none;stroke-width:1.37;stroke-linecap:butt;stroke-linejoin:miter;stroke:rgb(10.598755%,8.599854%,9.799194%);stroke-opacity:1;stroke-miterlimit:10;" d="M 2004.0625 3032.921875 C 2016.445313 3032.921875 2026.40625 3043.546875 2026.40625 3056.710938 C 2026.40625 3069.914063 2016.445313 3080.695313 2004.0625 3080.695313 C 1991.71875 3080.695313 1981.796875 3069.914063 1981.796875 3056.710938 C 1981.796875 3043.546875 1991.71875 3032.921875 2004.0625 3032.921875 Z M 2004.0625 3032.921875 " transform="matrix(0.1,0,0,-0.1,0,499.3)"/>
<path style="fill:none;stroke-width:1.37;stroke-linecap:butt;stroke-linejoin:miter;stroke:rgb(10.598755%,8.599854%,9.799194%);stroke-opacity:1;stroke-miterlimit:10;" d="M 2197.8125 2920.03125 C 2212.03125 2920.03125 2223.710938 2931.007813 2223.710938 2944.367188 C 2223.710938 2957.882813 2212.03125 2968.859375 2197.8125 2968.859375 C 2183.554688 2968.859375 2171.875 2957.882813 2171.875 2944.367188 C 2171.875 2931.007813 2183.554688 2920.03125 2197.8125 2920.03125 Z M 2197.8125 2920.03125 " transform="matrix(0.1,0,0,-0.1,0,499.3)"/>
<path style="fill:none;stroke-width:6;stroke-linecap:butt;stroke-linejoin:miter;stroke:rgb(10.598755%,8.599854%,9.799194%);stroke-opacity:1;stroke-miterlimit:10;" d="M 1763.828125 2935.617188 C 1759.53125 2938.546875 1761.445313 2952.921875 1766.25 2949.992188 L 2206.054688 2702.335938 C 2217.382813 2695.8125 2194.21875 2683.3125 2189.21875 2687.257813 Z M 1763.828125 2935.617188 " transform="matrix(0.1,0,0,-0.1,0,499.3)"/>
<path style="fill:none;stroke-width:1.37;stroke-linecap:butt;stroke-linejoin:miter;stroke:rgb(10.598755%,8.599854%,9.799194%);stroke-opacity:1;stroke-miterlimit:10;" d="M 1796.601563 3137.414063 C 1806.757813 3137.414063 1815.15625 3146.320313 1815.15625 3157.257813 C 1815.15625 3168.078125 1806.757813 3176.984375 1796.601563 3176.984375 C 1786.484375 3176.984375 1778.085938 3168.078125 1778.085938 3157.257813 C 1778.085938 3146.320313 1786.484375 3137.414063 1796.601563 3137.414063 Z M 1796.601563 3137.414063 " transform="matrix(0.1,0,0,-0.1,0,499.3)"/>
<path style="fill:none;stroke-width:1.37;stroke-linecap:butt;stroke-linejoin:miter;stroke:rgb(10.598755%,8.599854%,9.799194%);stroke-opacity:1;stroke-miterlimit:10;" d="M 2385.039063 2789.679688 C 2396.523438 2789.679688 2405.976563 2798.429688 2405.976563 2809.40625 C 2405.976563 2820.1875 2396.523438 2828.898438 2385.039063 2828.898438 C 2373.515625 2828.898438 2364.0625 2820.1875 2364.0625 2809.40625 C 2364.0625 2798.429688 2373.515625 2789.679688 2385.039063 2789.679688 Z M 2385.039063 2789.679688 " transform="matrix(0.1,0,0,-0.1,0,499.3)"/>
<path style="fill:none;stroke-width:1.37;stroke-linecap:butt;stroke-linejoin:miter;stroke:rgb(10.598755%,8.599854%,9.799194%);stroke-opacity:1;stroke-miterlimit:10;" d="M 2209.84375 2724.40625 C 2220.46875 2718.429688 2232.304688 2718.078125 2245.15625 2721.671875 L 2313.984375 2773.585938 L 2172.929688 2767.765625 C 2175.15625 2804.40625 2177.890625 2841.59375 2182.1875 2879.796875 C 2184.257813 2904.289063 2164.53125 2906.671875 2142.03125 2897.765625 L 2009.21875 2850.304688 L 1997.734375 2997.960938 C 1992.226563 3016.476563 1978.164063 3019.367188 1958.4375 3011.828125 L 1856.171875 2969.71875 L 1840.546875 2979.484375 L 1806.40625 3097.140625 L 1773.4375 3001.398438 C 1771.210938 2993.351563 1772.265625 2984.09375 1778.085938 2973.117188 Z M 2209.84375 2724.40625 " transform="matrix(0.1,0,0,-0.1,0,499.3)"/>
<path style=" stroke:none;fill-rule:evenodd;fill:rgb(10.598755%,8.599854%,9.799194%);fill-opacity:1;" d="M 301.804688 114.984375 C 299.109375 115.035156 297.101563 114.589844 295.730469 113.71875 C 296.589844 107.277344 298.714844 100.976563 302.542969 95.285156 C 304.222656 92.960938 304.757813 93.265625 304.140625 96.210938 C 302.113281 102.34375 301.339844 108.597656 301.804688 114.984375 "/>
<path style="fill:none;stroke-width:6;stroke-linecap:butt;stroke-linejoin:miter;stroke:rgb(10.598755%,8.599854%,9.799194%);stroke-opacity:1;stroke-miterlimit:10;" d="M 3018.046875 3843.15625 C 2991.09375 3842.648438 2971.015625 3847.101563 2957.304688 3855.8125 C 2965.898438 3920.226563 2987.148438 3983.234375 3025.429688 4040.148438 C 3042.226563 4063.390625 3047.578125 4060.34375 3041.40625 4030.890625 C 3021.132813 3969.5625 3013.398438 3907.023438 3018.046875 3843.15625 Z M 3018.046875 3843.15625 " transform="matrix(0.1,0,0,-0.1,0,499.3)"/>
<path style=" stroke:none;fill-rule:evenodd;fill:rgb(10.598755%,8.599854%,9.799194%);fill-opacity:1;" d="M 257.34375 111.507813 C 259.472656 111.507813 261.6875 111.355469 263.914063 111.082031 C 261.824219 103.148438 256.535156 96.4375 250.804688 89.890625 C 244.613281 83.964844 242.878906 84.203125 247.871094 89.652344 C 252.160156 96.589844 255.320313 103.75 257.34375 111.507813 "/>
<path style=" stroke:none;fill-rule:evenodd;fill:rgb(10.598755%,8.599854%,9.799194%);fill-opacity:1;" d="M 289.929688 300.753906 C 284.765625 295.339844 279.324219 292.941406 268.550781 283.589844 C 263.09375 278.847656 252.214844 273.894531 244.421875 266.820313 C 237.234375 260.3125 228.257813 253.1875 224.070313 244.3125 C 221.976563 240.683594 220.589844 237.410156 219.953125 233.128906 C 225.136719 229.222656 229.769531 226.105469 234.933594 222.199219 C 236.304688 222.457031 238.792969 223.140625 240.941406 221.71875 C 244.867188 219.097656 240.972656 212.007813 236.238281 214.59375 C 233.097656 216.308594 234.695313 218.703125 233.699219 219.21875 C 230.042969 220.246094 227.058594 220.074219 224.089844 219.867188 C 231.722656 209.917969 239.273438 200.941406 243.253906 190.199219 C 246.738281 180.832031 247.734375 169.972656 248.09375 159.847656 C 245.28125 159.144531 241.007813 159.300781 238.417969 156.441406 C 241.214844 156.488281 245.230469 156.917969 249.226563 156.078125 C 252.332031 155.445313 256.039063 153.390625 259.042969 151.710938 C 263.023438 151.695313 266.09375 151.488281 266.078125 151.078125 C 266.078125 150.648438 262.785156 150.050781 258.648438 150.101563 C 256.503906 150.1875 250.015625 145.234375 247.269531 143.953125 C 244.527344 142.667969 242.980469 142.308594 240.628906 142.152344 C 237.421875 141.929688 233.578125 142.992188 231.261719 144.019531 C 232.394531 141.914063 234.777344 140.851563 240.835938 141.058594 C 244.953125 141.023438 242.878906 139 240.835938 137.75 C 239.6875 137.050781 239.019531 135.660156 238.863281 135.316406 C 236.890625 130.644531 241.503906 125.519531 244.9375 123.929688 C 251.164063 121.015625 253.910156 120.449219 257 119.867188 C 259.179688 119.472656 261.6875 119.421875 263.796875 119.40625 C 266.660156 119.390625 269.972656 119.421875 277.367188 120.3125 C 286.15625 121.394531 297.566406 122.558594 310.214844 124.253906 C 316.011719 125.023438 324.660156 126.515625 331.25 127.285156 C 335.507813 127.800781 343.933594 127.25 352.1875 124.988281 C 362.585938 122.148438 373.136719 116.871094 379.230469 111.183594 C 386.351563 104.210938 389.457031 98.472656 392.835938 89.15625 C 394.140625 85.609375 395.085938 78.707031 395.117188 73.722656 C 395.1875 66.066406 394.328125 58.785156 389.886719 51.523438 C 387.621094 47.820313 380.859375 38.726563 379.367188 37.046875 C 378.046875 35.59375 374.871094 31.890625 373.445313 30.796875 C 371.25 29.082031 370.734375 30.898438 372.589844 33.503906 C 373.601563 34.957031 376.691406 37.953125 379.058594 41.585938 C 381.648438 45.5625 382.816406 50.320313 382.96875 51.4375 C 383.503906 55.117188 383.984375 59.214844 382.851563 61.558594 C 380.378906 66.714844 373.394531 65.585938 369.65625 62.792969 C 366.496094 60.429688 361.28125 55.925781 360.320313 57.242188 C 359.359375 58.597656 364.710938 62.226563 368.554688 65.105469 C 370.101563 66.234375 371.285156 67.621094 371.917969 68.136719 C 376.003906 71.5625 381.046875 79.101563 379.296875 85.867188 C 377.925781 91.175781 370.769531 93.558594 365.863281 89.738281 C 363.253906 87.714844 361.621094 85.625 360.214844 84.101563 C 358.328125 82.046875 356.5625 78.070313 355.289063 79.050781 C 354.742188 79.492188 354.726563 80.367188 355.171875 81.585938 C 355.738281 83.125 357.4375 85.488281 358.910156 88.109375 C 360.746094 91.398438 362.617188 97.050781 362.277344 102.515625 C 362.035156 106.507813 360.25 110.328125 358.210938 113.359375 C 355.410156 117.539063 348.238281 118.941406 344.703125 119.304688 C 343.554688 119.421875 343.367188 116.734375 343.175781 115.636719 C 343.089844 115.175781 342.40625 107.652344 344.308594 102.15625 C 346.933594 94.566406 352.355469 88.382813 351.722656 87.769531 C 351.277344 87.304688 345.800781 91.621094 341.460938 99.742188 C 337.6875 106.816406 334.410156 113.460938 333.824219 115.175781 C 333.257813 116.902344 332.589844 120.003906 329.65625 120.039063 C 329.019531 120.039063 326.808594 120.671875 324.421875 120.160156 C 315.359375 118.15625 295.832031 115.328125 285.332031 114.25 C 284.679688 109.4375 285.914063 101.675781 284.867188 95.699219 C 283.425781 87.492188 279.480469 81.15625 276.527344 76.855469 C 271.414063 69.441406 269.578125 65.910156 268.15625 67.367188 C 267.949219 67.589844 267.367188 68.753906 268.207031 69.96875 C 270.230469 72.933594 276.132813 80.984375 277.695313 89.378906 C 278.640625 94.515625 279.324219 101.265625 278.023438 105.890625 C 277.128906 109.058594 274.847656 111.644531 273.320313 112.828125 C 258.597656 111.21875 247.613281 113.667969 235.945313 120.84375 C 231.242188 120.160156 222.183594 116.082031 216.382813 108.015625 C 215.851563 107.277344 212.847656 103.441406 211.234375 99.074219 C 209.46875 94.328125 209.058594 89.085938 208.179688 89.070313 C 207.359375 89.054688 206.363281 94.585938 208.265625 100.324219 C 210.292969 106.4375 215.304688 112.828125 216.574219 114.113281 C 220.382813 117.984375 227.914063 124.253906 229.75 129.578125 C 230.644531 132.167969 229.90625 134.90625 228.085938 137.203125 C 213.226563 137.941406 209.570313 140.78125 200.734375 146.828125 C 192.925781 152.175781 180.761719 159.402344 172.453125 160.207031 C 172.042969 160.242188 169.8125 160.003906 169.074219 161.953125 C 168.285156 164.011719 168.421875 167.300781 168.765625 168.960938 C 168.917969 169.746094 169.503906 170.863281 170.410156 171.445313 C 171.800781 171.496094 173.363281 171.734375 174.222656 170.605469 C 176.46875 169.972656 179.335938 169.507813 181.515625 170.554688 C 178.578125 173.6875 176.691406 176.121094 177.808594 178.449219 C 182.40625 176.085938 186.660156 174.015625 195.15625 173.003906 C 203.289063 172.0625 214.152344 173.757813 221.070313 169.40625 C 223.898438 167.625 226.386719 164.335938 227.246094 160.945313 C 228.378906 156.457031 227.742188 151.882813 232.066406 151.230469 C 238.074219 150.820313 240.648438 151.316406 246.617188 150.5625 C 245.847656 151.179688 240.785156 151.96875 236.476563 152.363281 C 232.429688 152.722656 229.75 153.460938 229.269531 157.363281 C 229.082031 158.941406 228.671875 163.804688 225.785156 167.074219 C 221.582031 171.855469 213.980469 174.664063 207.203125 173.601563 C 200.011719 180.675781 193.679688 186.964844 185.117188 191.726563 C 183.246094 190.734375 182.285156 188.472656 182.199219 186.261719 C 183.179688 185.199219 183.746094 183.710938 183.007813 181.945313 C 182.21875 180.0625 180.125 179.136719 178.71875 179.460938 C 177.328125 179.804688 175.835938 180.746094 175.679688 183.332031 C 175.542969 185.917969 177.996094 187.390625 177.84375 187.304688 C 176.589844 193.4375 174.632813 199.296875 173.382813 205.429688 C 168.765625 207.929688 160.976563 209.574219 159.308594 213.703125 C 161.851563 213.019531 165.316406 212.742188 166.996094 212.964844 C 164.972656 216.460938 156.136719 219.75 155.964844 223.535156 C 158.640625 222.714844 159.257813 222.0625 161.316406 221.890625 C 159.808594 225.367188 153.199219 231.089844 151.46875 235.199219 C 153.40625 235.746094 155.535156 232.902344 156.085938 234.308594 C 153.992188 238.898438 148.429688 243.457031 149.050781 251.402344 C 149.613281 251.59375 150.558594 251.746094 151.140625 251.730469 C 151.519531 249.46875 151.605469 248.695313 153.683594 247.601563 C 154.074219 248.75 151.828125 253.273438 152.945313 254.023438 C 155.464844 255.753906 164.820313 259.625 166.363281 259.832031 C 168.300781 253.683594 168.351563 247.6875 174.976563 244.140625 C 170.894531 248.441406 168.300781 254.417969 168.816406 261.800781 C 162.175781 260.5 150.371094 254.726563 140.933594 249.554688 C 138.324219 246.644531 133.433594 243.832031 129.09375 246.214844 C 124.75 248.59375 123.722656 251.300781 125.933594 260.722656 C 126.398438 266.90625 127.015625 273.449219 127.617188 279.941406 C 128.097656 285.132813 127.375 291.195313 126.636719 295.71875 C 126.175781 298.527344 127.992188 301.335938 128.835938 303.71875 C 129.382813 305.945313 130.070313 307.316406 130.636719 309.539063 C 130.085938 311.167969 129.46875 318.261719 131.339844 315.914063 L 138.632813 306.75 C 142.390625 302.023438 135.820313 298.5625 136.230469 297.5 C 138.117188 294.3125 139.492188 292.359375 136.710938 287.734375 C 135.320313 278.46875 135.132813 268.449219 136.539063 259.679688 C 138.734375 259.523438 145.769531 262.863281 150.234375 265.398438 C 151.847656 266.308594 152.875 267.710938 154.058594 268.484375 C 155.449219 269.390625 157.132813 269.5625 158.710938 270.351563 C 161.351563 271.667969 163.515625 272.832031 166.207031 274.238281 C 170.601563 276.53125 174.136719 280.898438 177.824219 282.972656 C 180.226563 286.074219 184.671875 282.082031 186.578125 280.882813 C 186.25 276.3125 187.160156 271.429688 188.996094 267.488281 C 187.574219 272.917969 186.886719 275.402344 187.726563 281.121094 C 185.769531 282.527344 180.160156 287.855469 177.378906 284.105469 C 171.90625 280.0625 167.957031 276.191406 161.386719 273.125 C 157.9375 271.289063 160.355469 278.640625 160.71875 285.078125 C 160.820313 286.8125 161.730469 288.148438 162.828125 289.039063 C 163.925781 287.734375 164.078125 284.753906 164.886719 282.820313 C 167.117188 285.183594 171.820313 294.089844 175.542969 295.976563 C 175.816406 294.585938 175.59375 293.132813 175.679688 291.503906 C 180.023438 296.386719 185.152344 300.289063 189.820313 304.863281 C 189.820313 302.773438 188.738281 300.941406 188.34375 298.886719 C 195.003906 302.570313 201.316406 307.417969 208.234375 310.945313 C 214.941406 314.355469 222.234375 316.925781 228.722656 320.007813 C 235.019531 323.210938 242.3125 327.542969 248.59375 330.746094 C 248.882813 327.117188 248.453125 319.1875 247.648438 315.023438 C 252.675781 321.15625 251.527344 334.910156 251.820313 348.972656 C 252.058594 360.878906 256.675781 372.59375 259.453125 378.933594 C 264.328125 388.078125 272.359375 398.734375 278.621094 404.96875 C 279.996094 406.339844 280.476563 408.738281 280.734375 410.640625 C 281.128906 413.6875 281.039063 416.238281 281.058594 419.40625 C 281.09375 426.140625 280.699219 433.644531 280.507813 439.65625 C 280.355469 444.878906 278.585938 449.179688 277.285156 454.0625 C 276.90625 455.175781 276.101563 456.578125 274.007813 458.53125 C 271.605469 457.933594 268.738281 464.957031 267.382813 469.167969 L 279.824219 468.140625 C 280.164063 466.070313 279.101563 460.84375 282.089844 459.867188 L 286.960938 459.609375 C 287.167969 459.609375 288.195313 458.925781 288.179688 457.96875 C 287.921875 441.625 289.363281 424.941406 294.976563 409.148438 C 296.023438 407.230469 296.3125 405.242188 295.335938 403.582031 C 294.167969 401.578125 292.195313 401.371094 289.328125 397.433594 C 288.300781 396.011719 284.507813 391.316406 284.097656 385.40625 C 283.667969 379.324219 284.199219 371.292969 286.925781 363.722656 C 288.917969 358.171875 292.402344 353.101563 295.9375 348.132813 C 299.265625 343.441406 299.96875 337.375 300.792969 331.691406 C 301.632813 333.109375 301.546875 336.261719 300.964844 339.261719 C 300.398438 342.257813 298.9375 345.375 299.128906 346.148438 C 299.816406 345.890625 301.050781 344.535156 302.269531 344.007813 C 302.699219 345.632813 303.796875 356.339844 304.945313 356.234375 C 305.511719 356.183594 306.042969 352.671875 306.796875 351.472656 C 307.84375 352.726563 309.390625 355.910156 311.894531 356.425781 C 315.875 357.246094 319.273438 356.066406 320.507813 353.441406 C 320.371094 353.203125 320.183594 352.726563 319.960938 352.859375 C 318.121094 353.957031 315.480469 354.796875 314.125 354.300781 C 312.289063 353.597656 311.3125 347.449219 310.386719 341.742188 C 309.390625 335.679688 307.621094 329.789063 306.285156 327.117188 C 304.429688 323.054688 302.527344 318.414063 300.15625 314.609375 C 297.070313 309.628906 295.113281 306.183594 289.929688 300.753906 "/>
<path style=" stroke:none;fill-rule:evenodd;fill:rgb(99.598694%,71.398926%,3.09906%);fill-opacity:1;" d="M 179.660156 181.601563 C 180.675781 181.601563 181.515625 182.476563 181.515625 183.574219 C 181.515625 184.667969 180.675781 185.558594 179.660156 185.558594 C 178.632813 185.558594 177.808594 184.667969 177.808594 183.574219 C 177.808594 182.476563 178.632813 181.601563 179.660156 181.601563 "/>
<path style=" stroke:none;fill-rule:evenodd;fill:rgb(99.598694%,71.398926%,3.09906%);fill-opacity:1;" d="M 200.40625 191.230469 C 201.644531 191.230469 202.640625 192.308594 202.640625 193.628906 C 202.640625 194.945313 201.644531 196.007813 200.40625 196.007813 C 199.171875 196.007813 198.179688 194.945313 198.179688 193.628906 C 198.179688 192.308594 199.171875 191.230469 200.40625 191.230469 "/>
<path style=" stroke:none;fill-rule:evenodd;fill:rgb(99.598694%,71.398926%,3.09906%);fill-opacity:1;" d="M 219.78125 202.414063 C 221.222656 202.414063 222.371094 203.511719 222.371094 204.863281 C 222.371094 206.199219 221.222656 207.296875 219.78125 207.296875 C 218.355469 207.296875 217.1875 206.199219 217.1875 204.863281 C 217.1875 203.511719 218.355469 202.414063 219.78125 202.414063 "/>
<path style=" stroke:none;fill-rule:evenodd;fill:rgb(99.598694%,71.398926%,3.09906%);fill-opacity:1;" d="M 176.382813 205.738281 C 175.953125 205.445313 176.144531 204.007813 176.625 204.300781 L 220.605469 229.066406 C 221.738281 229.71875 219.421875 230.96875 218.921875 230.574219 "/>
<path style=" stroke:none;fill-rule:evenodd;fill:rgb(99.598694%,71.398926%,3.09906%);fill-opacity:1;" d="M 238.503906 216.410156 C 239.652344 216.410156 240.597656 217.28125 240.597656 218.359375 C 240.597656 219.457031 239.652344 220.332031 238.503906 220.332031 C 237.351563 220.332031 236.40625 219.457031 236.40625 218.359375 C 236.40625 217.28125 237.351563 216.410156 238.503906 216.410156 "/>
<path style=" stroke:none;fill-rule:evenodd;fill:rgb(99.598694%,71.398926%,3.09906%);fill-opacity:1;" d="M 220.984375 226.859375 C 222.046875 227.457031 223.230469 227.492188 224.515625 227.132813 L 231.398438 221.941406 L 217.292969 222.523438 C 217.515625 218.859375 217.789063 215.140625 218.21875 211.320313 C 218.425781 208.871094 216.453125 208.632813 214.203125 209.523438 L 200.921875 214.269531 L 199.773438 199.503906 C 199.222656 197.652344 197.816406 197.363281 195.84375 198.117188 L 185.617188 202.328125 L 184.054688 201.351563 L 180.640625 189.585938 L 177.34375 199.160156 C 177.121094 199.964844 177.226563 200.890625 177.808594 201.988281 "/>
<path style=" stroke:none;fill-rule:evenodd;fill:rgb(10.598755%,8.599854%,9.799194%);fill-opacity:1;" d="M 148.121094 248.695313 C 148.5 247.960938 148.480469 246.144531 148.722656 244.742188 C 149.1875 242.121094 149.992188 241.28125 148.394531 240.203125 C 144.945313 236.980469 142.390625 232.289063 140.128906 228.417969 C 139.132813 226.703125 138.066406 225.882813 135.5625 225.316406 C 133.054688 224.753906 129.230469 226.242188 126.503906 228.109375 C 119.6875 235.386719 111.984375 243.59375 103.179688 250.378906 C 100.265625 252.605469 99.046875 251.335938 96.832031 253.800781 C 92.507813 260.019531 88.714844 265.398438 84.410156 271.617188 C 85.917969 271.703125 88.59375 272.011719 89.332031 270.984375 C 90.6875 270.316406 95.632813 270.484375 97.585938 270.316406 C 99.21875 270.175781 101.226563 269.183594 101.242188 267.128906 C 101.621094 265.707031 101.671875 264.132813 101.996094 262.570313 C 104.554688 263.019531 106.730469 262.144531 107.863281 260.398438 C 108.738281 259.027344 108.242188 256.628906 109.71875 255.085938 C 115.621094 250.015625 121.523438 244.964844 127.410156 239.894531 C 131.753906 236.691406 134.550781 237.136719 136.042969 240.613281 C 136.984375 245.957031 142.71875 249.347656 144.3125 249.296875 C 145.996094 250.34375 147.195313 250.582031 148.121094 248.695313 "/>
<path style=" stroke:none;fill-rule:evenodd;fill:rgb(10.598755%,8.599854%,9.799194%);fill-opacity:1;" d="M 250.144531 365.789063 C 249.609375 370.199219 250.085938 377.433594 251.871094 379.890625 C 255.355469 383.660156 254.753906 385.285156 251.03125 386.417969 C 248.058594 387.582031 245.039063 388.199219 241.96875 388.269531 C 234.660156 388.59375 220.671875 388.574219 216.574219 389.84375 C 212.488281 391.09375 212.488281 391.691406 210.636719 393.441406 C 209.742188 393.613281 208.886719 393.492188 208.113281 392.773438 C 207.324219 392.328125 206.550781 391.882813 205.761719 391.4375 C 204.988281 391.28125 204.492188 391.558594 204.25 392.277344 C 203.480469 393.390625 202.691406 394.503906 201.917969 395.617188 C 201.351563 396.386719 200.5625 396.558594 199.566406 396.128906 C 195.242188 394.589844 190.265625 392.671875 186.046875 391.128906 C 186.871094 390.390625 188.019531 390.476563 188.996094 390.101563 C 192.136719 388.097656 195.261719 386.09375 198.382813 384.070313 C 200.355469 382.957031 202.246094 382.664063 204.097656 382.734375 C 218.304688 382.390625 231.621094 381.5 238.621094 376.878906 C 239.15625 375.609375 239.34375 374.359375 238.792969 373.195313 C 234.539063 366.222656 230.164063 358.703125 228.050781 350.550781 C 225.941406 342.378906 225.238281 334.003906 230.078125 327.183594 C 230.25 325.0625 230.96875 323.773438 232.925781 324.339844 C 235.773438 325.675781 237.609375 326.53125 240.460938 327.867188 C 242.742188 329.050781 241.023438 330.695313 240.800781 331.859375 C 240.511719 332.71875 246.054688 335.320313 248.679688 337.050781 C 250.890625 338.679688 249.46875 340.851563 249.863281 342.738281 C 250.011719 346.894531 250.4375 350.957031 250.628906 355.101563 C 250.628906 355.101563 250.445313 363.308594 250.144531 365.789063 "/>
<path style=" stroke:none;fill-rule:evenodd;fill:rgb(10.598755%,8.599854%,9.799194%);fill-opacity:1;" d="M 242.433594 331.851563 C 241.953125 331.390625 243.050781 329.695313 243.703125 329.8125 C 245.933594 330.207031 247.1875 331.078125 248.796875 332.65625 C 249.484375 333.308594 249.382813 335.722656 248.472656 335.429688 C 245.914063 334.574219 244.320313 333.703125 242.433594 331.851563 "/>
<path style=" stroke:none;fill-rule:nonzero;fill:rgb(99.598694%,71.398926%,3.09906%);fill-opacity:1;" d="M 213.789063 148.78125 C 211.871094 148.78125 210.308594 150.339844 210.308594 152.257813 C 210.308594 154.175781 211.871094 155.738281 213.789063 155.738281 C 215.707031 155.738281 217.265625 154.175781 217.265625 152.257813 C 217.265625 150.339844 215.707031 148.78125 213.789063 148.78125 M 213.789063 156.738281 C 211.320313 156.738281 209.308594 154.730469 209.308594 152.257813 C 209.308594 149.789063 211.320313 147.78125 213.789063 147.78125 C 216.257813 147.78125 218.265625 149.789063 218.265625 152.257813 C 218.265625 154.730469 216.257813 156.738281 213.789063 156.738281 "/>
</g>
</svg>
